<svg width="406" height="198" viewBox="0 0 406 198" fill="none" xmlns="http://www.w3.org/2000/svg">
<g clip-path="url(#clip0_49_1063)">
<rect width="406" height="198" rx="28" fill="#E6F6F4"/>
<path fill-rule="evenodd" clip-rule="evenodd" d="M412.676 50.6059L417.348 53.0334C417.423 53.0718 417.497 53.1103 417.572 53.1491L422.261 55.5858C422.33 55.6211 422.399 55.6565 422.467 55.6922L426.971 58.0322C427.102 58.0985 427.233 58.1656 427.364 58.2336L460.772 75.5938L461.63 76.0396L461.629 76.0416L461.629 76.0419L461.629 76.0421L461.629 76.0424L461.628 76.043L461.628 76.0444L461.279 76.716L461.184 76.8973L461.183 76.8993L461.183 76.8996L461.183 76.8999L461.183 76.9002L461.182 76.9022L450.963 96.5676L448.296 101.7L445.629 106.833L442.965 111.96L440.297 117.094L437.63 122.226L434.964 127.358C420.237 155.698 386.382 167.284 359.347 153.236C332.311 139.187 322.333 104.824 337.059 76.4839C351.786 48.1434 385.641 36.5574 412.676 50.6059ZM446.926 102.198C439.543 115.24 423.638 120.382 410.934 113.781C397.927 107.022 393.065 90.4434 400.202 76.7083C407.199 63.2441 423.059 57.645 435.934 63.7958C426.557 62.1568 416.62 66.9454 411.802 76.2179C405.911 87.5541 409.902 101.299 420.716 106.919C429.509 111.488 440.106 109.278 446.926 102.198ZM450.105 96.1218L460.324 76.4565L441.279 66.5601C431.03 61.4632 418.265 65.8764 412.659 76.6636C406.995 87.5647 410.859 100.707 421.162 106.061C431.465 111.415 444.441 107.023 450.105 96.1218ZM387.744 76.7547C396.065 60.7413 414.789 53.9378 430.217 60.8685C418.292 58.4473 405.488 64.4385 399.344 76.2626C391.981 90.4328 396.97 107.614 410.488 114.639C421.707 120.468 435.274 117.47 443.774 108.181C434.71 123.431 415.835 129.365 400.704 121.502C384.994 113.339 379.134 93.3238 387.744 76.7547ZM440.614 114.152C429.878 131.613 408.034 138.339 390.479 129.217C372.065 119.649 365.207 96.1971 375.29 76.7939C384.945 58.213 406.567 50.2107 424.553 57.9684C410.069 54.7244 394.366 61.9151 386.886 76.309C378.05 93.3132 384.037 113.931 400.259 122.36C413.904 129.451 430.445 125.658 440.614 114.152ZM362.832 76.8403C373.808 55.7168 398.286 46.5142 418.811 55.0508C401.793 51.0229 383.233 59.4113 374.432 76.3482C364.123 96.1865 371.108 120.241 390.033 130.075C406.108 138.428 425.628 133.834 437.46 120.102C425.063 139.794 400.237 147.325 380.249 136.938C359.132 125.965 351.276 99.0775 362.832 76.8403ZM434.297 126.057C420.24 147.974 392.437 156.307 370.021 144.658C346.2 132.28 337.347 101.956 350.374 76.8849C362.682 53.2003 390.05 42.801 413.122 52.1588C393.557 47.3106 372.106 56.8955 361.974 76.3946C350.192 99.0669 358.175 126.557 379.803 137.796C398.308 147.412 420.806 142.016 434.297 126.057ZM337.732 76.8336C351.687 49.9795 382.991 38.3987 409.027 49.707C386.503 43.0848 361.256 53.8468 349.517 76.4392C336.263 101.946 345.243 132.872 369.575 145.516C391.04 156.67 417.281 149.869 432.266 130.601C416.819 155.96 385.16 165.795 359.696 152.563C333.062 138.723 323.183 104.833 337.732 76.8336Z" fill="#1F8505"/>
</g>
<defs>
<clipPath id="clip0_49_1063">
<rect width="406" height="198" fill="white"/>
</clipPath>
</defs>
</svg>
