<svg width="28" height="28" viewBox="0 0 28 28" fill="none" xmlns="http://www.w3.org/2000/svg">
<path d="M19.6462 6.76251C20.0892 6.76251 20.4553 7.09169 20.5133 7.51878L20.5212 7.63751V23.5249C20.5212 24.0082 20.1295 24.3999 19.6462 24.3999C19.2033 24.3999 18.8372 24.0707 18.7792 23.6437L18.7712 23.5249V7.63751C18.7712 7.15426 19.163 6.76251 19.6462 6.76251Z" fill="black"/>
<path d="M23.7833 18.1288C24.1243 17.7863 24.6783 17.7851 25.0208 18.126C25.3321 18.4359 25.3615 18.9219 25.1081 19.2651L25.0236 19.3634L20.2662 24.1429C19.9553 24.4552 19.4673 24.4836 19.1242 24.228L19.0259 24.1429L14.2685 19.3634C13.9276 19.0209 13.9289 18.4669 14.2714 18.126C14.5827 17.8161 15.0689 17.7889 15.4109 18.0439L15.5088 18.1288L19.6456 22.2845L23.7833 18.1288Z" fill="black"/>
<path d="M8.06299 3.59669C8.50597 3.59669 8.87206 3.92587 8.93 4.35296L8.93799 4.47169V20.3591C8.93799 20.8424 8.54624 21.2341 8.06299 21.2341C7.62001 21.2341 7.25392 20.9049 7.19598 20.4778L7.18799 20.3591V4.47169C7.18799 3.98845 7.57974 3.59669 8.06299 3.59669Z" fill="black"/>
<path d="M7.44293 3.85377C7.75386 3.54139 8.24182 3.51299 8.58495 3.76857L8.68322 3.85377L13.4406 8.63321C13.7815 8.97571 13.7803 9.52973 13.4378 9.87064C13.1264 10.1806 12.6402 10.2077 12.2983 9.95273L12.2003 9.86779L8.06281 5.71083L3.92581 9.86779C3.61588 10.1791 3.12984 10.2085 2.78671 9.95514L2.68838 9.87064C2.37702 9.56072 2.34765 9.07468 2.60102 8.73154L2.68552 8.63321L7.44293 3.85377Z" fill="black"/>
</svg>
